<?xml version="1.0" encoding="UTF-8" standalone="no"?>
<svg
   xmlns:dc="http://purl.org/dc/elements/1.1/"
   xmlns:cc="http://creativecommons.org/ns#"
   xmlns:rdf="http://www.w3.org/1999/02/22-rdf-syntax-ns#"
   xmlns:svg="http://www.w3.org/2000/svg"
   xmlns="http://www.w3.org/2000/svg"
   xmlns:sodipodi="http://sodipodi.sourceforge.net/DTD/sodipodi-0.dtd"
   xmlns:inkscape="http://www.inkscape.org/namespaces/inkscape"
   sodipodi:docname="heart-ts.svg"
   inkscape:version="1.0 (4035a4fb49, 2020-05-01)"
   id="svg1457"
   version="1.1"
   viewBox="0 0 300 150"
   height="150mm"
   width="300mm">
  <defs
     id="defs1451" />
  <sodipodi:namedview
     inkscape:pagecheckerboard="true"
     inkscape:window-maximized="0"
     inkscape:window-y="52"
     inkscape:window-x="52"
     inkscape:window-height="1198"
     inkscape:window-width="1375"
     showgrid="false"
     inkscape:document-rotation="0"
     inkscape:current-layer="layer1"
     inkscape:document-units="mm"
     inkscape:cy="97.798393"
     inkscape:cx="349.83667"
     inkscape:zoom="0.35"
     inkscape:pageshadow="2"
     inkscape:pageopacity="0.0"
     borderopacity="1.0"
     bordercolor="#666666"
     pagecolor="#ffffff"
     id="base" />
  <metadata
     id="metadata1454">
    <rdf:RDF>
      <cc:Work
         rdf:about="">
        <dc:format>image/svg+xml</dc:format>
        <dc:type
           rdf:resource="http://purl.org/dc/dcmitype/StillImage" />
        <dc:title></dc:title>
      </cc:Work>
    </rdf:RDF>
  </metadata>
  <g
     id="layer1"
     inkscape:groupmode="layer"
     inkscape:label="Layer 1">
    <rect
       transform="rotate(15)"
       ry="0.35776946"
       rx="0.35776946"
       y="-31.312565"
       x="209.37999"
       height="83.370964"
       width="83.370995"
       id="rect2093"
       style="fill:#ffffff;stroke-width:0.35715;stroke-linecap:square" />
    <g
       id="g2298"
       transform="matrix(0.77456712,0,0,0.77456712,19.936737,60.654371)">
      <path
         d="M 94.070046,45.083147 47.779365,71.809084 1.4886848,45.083147 l 3e-7,-53.4518739 46.2906809,-26.7259371 46.29068,26.7259375 z"
         inkscape:randomized="0"
         inkscape:rounded="0"
         inkscape:flatsided="true"
         sodipodi:arg2="1.0471976"
         sodipodi:arg1="0.52359878"
         sodipodi:r2="26.725941"
         sodipodi:r1="53.451874"
         sodipodi:cy="18.35721"
         sodipodi:cx="47.779366"
         sodipodi:sides="6"
         id="path983"
         style="fill:#333333;fill-opacity:1;stroke:#434343;stroke-width:4.6024;stroke-miterlimit:4;stroke-dasharray:none;stroke-opacity:1"
         sodipodi:type="star" />
      <text
         id="text4757"
         y="-14.792668"
         x="-5.8732924"
         style="font-style:normal;font-weight:normal;font-size:2.58306px;line-height:0%;font-family:sans-serif;letter-spacing:0px;word-spacing:0px;fill:#000000;fill-opacity:1;stroke:none;stroke-width:0.215255px;stroke-linecap:butt;stroke-linejoin:miter;stroke-opacity:1"
         xml:space="preserve"><tspan
           style="font-size:8.6102px;line-height:1.25;stroke-width:0.215255px"
           y="-14.792668"
           x="-5.8732924"
           id="tspan4759"
           sodipodi:role="line"> </tspan></text>
      <g
         style="stroke:none;stroke-width:8.26524;stroke-miterlimit:4;stroke-dasharray:none;stroke-opacity:1"
         transform="matrix(0.23140954,0,0,0.23140954,-15.280313,-165.25868)"
         id="g939">
        <path
           style="fill:#24a57a;fill-opacity:1;stroke:none;stroke-width:8.26524;stroke-linecap:butt;stroke-linejoin:miter;stroke-miterlimit:4;stroke-dasharray:none;stroke-opacity:1"
           d="M 412.86992,582.2774 134.48743,743.00166 88.251072,823.08538 366.63355,662.36113 l -1e-5,130.22126 -96.42071,-67.11507 96.42071,128.30373 -2e-5,130.03854 46.23641,-80.08388 z"
           id="path968"
           inkscape:connector-curvature="0"
           sodipodi:nodetypes="cccccccccc" />
        <path
           style="fill:#f9f9f9;fill-opacity:1;stroke:none;stroke-width:8.26524;stroke-linecap:butt;stroke-linejoin:miter;stroke-miterlimit:4;stroke-dasharray:none;stroke-opacity:1"
           d="M 270.21283,725.46732 89.641496,829.72027 59.650531,881.66616 240.22186,777.41321 l -1e-5,84.46734 -62.54278,-43.53383 62.54278,83.22353 -1e-5,84.3488 29.99101,-51.94597 z"
           id="path968-7"
           inkscape:connector-curvature="0"
           sodipodi:nodetypes="cccccccccc" />
      </g>
      <path
         sodipodi:nodetypes="cccccccccccccccc"
         id="path989"
         d="M 36.008014,-35.806157 -5.4225951,-11.886185 V 33.732998 L -21.296159,27.01251 -13.510985,22.517736 V 4.3608614 l -7.356913,-7.356909 6.970989,-4.024704 v -7.9487614 l 13.87858188,-8.012805 v -10.815486 l 8.39984002,4.84965 14.6855101,-8.478684 v -9.676294 l 6.236658,6.236657 z"
         style="fill:#a53024;fill-opacity:1;stroke:none;stroke-width:0.264583px;stroke-linecap:butt;stroke-linejoin:miter;stroke-opacity:1" />
      <path
         style="fill:#2467a5;fill-opacity:1;stroke:none;stroke-width:0.264583px;stroke-linecap:butt;stroke-linejoin:miter;stroke-opacity:1"
         d="M 59.374275,72.847818 100.80489,48.927847 V 3.3086554 l 15.87356,6.7205016 -7.78517,4.494757 v 18.156881 l 7.35691,7.356911 -6.97099,4.024715 v 7.948761 l -13.878579,8.012796 v 10.81549 l -8.39984,-4.84965 -14.685513,8.47869 v 9.67629 l -6.236657,-6.23664 z"
         id="path989-3"
         sodipodi:nodetypes="cccccccccccccccc" />
    </g>
    <path
       style="fill:#c83737;stroke:none;stroke-width:0.0147054"
       id="path2059"
       d="m 195.08228,63.010981 -11.98902,44.743629 44.74363,11.98902 44.74364,11.98902 11.98902,-44.743629 11.98902,-44.743628 -44.74363,-11.989024 -44.74364,-11.98902 z m 73.07069,15.75797 c 2.12045,1.17714 3.58315,2.64998 4.73253,4.72396 0.58789,1.10142 1.37937,3.03382 1.37604,3.44399 -0.002,0.12124 -4.59434,1.69199 -7.34428,2.52323 -0.10045,0.0339 -0.34239,-0.42668 -0.57367,-1.09762 -0.70145,-1.9844 -1.7147,-3.03232 -3.52701,-3.65495 -2.66355,-0.91161 -4.79129,0.0407 -5.41268,2.41661 -0.1865,0.69601 -0.19744,1.13457 -0.0656,1.77887 0.26545,1.39563 1.17548,2.43112 4.2521,4.86926 5.66778,4.47217 7.92204,7.024879 8.93386,10.066789 1.13076,3.3935 0.32373,8.10988 -1.88612,11.18677 -2.41761,3.34094 -6.61777,4.9254 -11.79962,4.43515 -1.60639,-0.14117 -5.23128,-1.15813 -6.79906,-1.89791 -3.42242,-1.60214 -6.35571,-4.29112 -7.83376,-7.18393 -0.58026,-1.12981 -1.54974,-3.93203 -1.40464,-4.07584 0.0578,-0.0454 0.48805,-0.17371 0.96468,-0.30481 0.45861,-0.12069 2.19644,-0.58372 3.83762,-1.02696 l 2.97062,-0.80257 0.32662,0.94008 c 0.44455,1.35226 1.66978,3.37044 2.52326,4.16243 2.45163,2.27067 6.42912,3.10807 8.82524,1.89277 1.02558,-0.53208 1.5758,-1.22198 1.8841,-2.37253 0.27784,-1.03692 0.27179,-1.52571 -0.0586,-2.45158 -0.42959,-1.1808 -1.62547,-2.39945 -5.19134,-5.2275 -4.08357,-3.225559 -5.74105,-4.994189 -7.03398,-7.441559 -0.74663,-1.41799 -1.25376,-3.50257 -1.25844,-5.13281 -0.002,-1.35553 0.76136,-4.54593 1.37378,-5.752 2.14679,-4.20515 6.34673,-6.41387 11.452,-6.03549 1.65662,0.12419 5.29088,1.21978 6.73639,2.01815 z m -22.0092,-1.89339 -0.95354,3.67233 -5.82377,-1.56047 -5.82378,-1.56049 -4.43404,16.54804 -4.43403,16.548049 -4.11925,-1.10376 -4.11925,-1.10374 4.43403,-16.548049 4.43403,-16.54804 -5.82377,-1.56047 -5.82378,-1.56047 0.96293,-3.5937 c 0.53284,-1.9886 1.02076,-3.6391 1.089,-3.66648 0.0579,-0.0454 7.15341,1.8254 15.74323,4.14225 l 15.62754,4.23307 z" />
    <path
       d="m 146.0774,51.138621 c -0.15449,0 -0.27911,0.12425 -0.27911,0.27875 v 18.81022 h -18.81022 c -0.1545,0 -0.27875,0.12462 -0.27875,0.27911 v 8.98699 c 0,0.15449 0.12425,0.27875 0.27875,0.27875 h 18.81022 v 18.81022 c 0,0.1545 0.12462,0.27911 0.27911,0.27911 h 8.98699 c 0.15449,0 0.27875,-0.12461 0.27875,-0.27911 v -18.81022 h 18.81022 c 0.1545,0 0.27911,-0.12426 0.27911,-0.27875 v -8.98699 c 0,-0.15449 -0.12461,-0.27911 -0.27911,-0.27911 h -18.81022 v -18.81022 c 0,-0.1545 -0.12426,-0.27875 -0.27875,-0.27875 z"
       style="fill:#cccccc;stroke-width:0.278385;stroke-linecap:square"
       id="rect2073" />
  </g>
</svg>
